<svg width="136" height="136" viewBox="0 0 136 136" fill="none" xmlns="http://www.w3.org/2000/svg">
<g filter="url(#filter0_d_141_4)">
<rect x="4" width="128" height="128" rx="16" fill="#F1F1F1"/>
<path d="M90.6154 17.028C92.2674 16.3987 94.588 16.084 97.5774 16.084C100.567 16.084 103.241 16.2807 105.601 16.674C103.163 34.7673 101.235 51.1693 99.8194 65.88C98.482 80.512 97.7347 88.2213 97.5774 89.008C97.4987 89.7947 97.4594 90.5027 97.4594 91.132C97.538 93.1773 98.5214 94.2 100.409 94.2C105.129 94.2 111.698 88.772 120.115 77.916C121.61 82.0853 122.475 84.878 122.711 86.294C118.935 92.2727 114.373 97.1893 109.023 101.044C103.753 104.82 98.7574 106.708 94.0374 106.708C89.3174 106.708 86.0527 105.489 84.2434 103.05C82.434 100.611 81.5294 97.8973 81.5294 94.908C81.5294 94.2 81.608 92.8233 81.7654 90.778C82.0014 88.7327 83.5747 75.9887 86.4854 52.546L67.1334 97.268H57.1034L51.3214 53.254L43.0614 89.834C41.724 95.6553 39.5214 99.9427 36.4534 102.696C33.464 105.449 30.16 106.826 26.5414 106.826C22.9227 106.826 19.9727 105.764 17.6914 103.64C15.2527 101.359 14.0334 98.1333 14.0334 93.964C14.0334 85.6253 20.484 78.506 33.3854 72.606C40.3867 39.0153 44.1627 20.4107 44.7134 16.792C46.6014 16.32 49.1187 16.084 52.2654 16.084C55.4907 16.084 57.6934 16.1627 58.8734 16.32H59.6994L67.0154 71.19L90.6154 17.618V17.028ZM22.4114 91.958C22.4114 94.4753 23.3947 95.734 25.3614 95.734C26.6987 95.734 27.8 94.672 28.6654 92.548C29.7667 89.952 30.6714 86.53 31.3794 82.282C25.4007 85.6647 22.4114 88.89 22.4114 91.958Z" fill="#06093B"/>
</g>
<defs>
<filter id="filter0_d_141_4" x="0" y="0" width="136" height="136" filterUnits="userSpaceOnUse" color-interpolation-filters="sRGB">
<feFlood flood-opacity="0" result="BackgroundImageFix"/>
<feColorMatrix in="SourceAlpha" type="matrix" values="0 0 0 0 0 0 0 0 0 0 0 0 0 0 0 0 0 0 127 0" result="hardAlpha"/>
<feOffset dy="4"/>
<feGaussianBlur stdDeviation="2"/>
<feComposite in2="hardAlpha" operator="out"/>
<feColorMatrix type="matrix" values="0 0 0 0 0 0 0 0 0 0 0 0 0 0 0 0 0 0 0.25 0"/>
<feBlend mode="normal" in2="BackgroundImageFix" result="effect1_dropShadow_141_4"/>
<feBlend mode="normal" in="SourceGraphic" in2="effect1_dropShadow_141_4" result="shape"/>
</filter>
</defs>
</svg>
